<svg id="e099f280-6714-4bef-a500-7862f7cf291d" data-name="レイヤー 2" xmlns="http://www.w3.org/2000/svg" viewBox="0 0 1000 1000"><defs><style>.abb2aade-d279-4e3d-a865-ba8f53a3113e{fill:#fff;}</style></defs><title>dish</title><path class="abb2aade-d279-4e3d-a865-ba8f53a3113e" d="M430.00812,804.62512a29.0748,29.0748,0,0,1-1.7619,9.88739c12.09661,1.0907,25.77533,2.11115,40.51513,3.04694a67.71515,67.71515,0,0,0-.00006-25.8689c-14.73987.93579-28.41852,1.95618-40.51514,3.04694A29.07454,29.07454,0,0,1,430.00812,804.62512Z"/><path class="abb2aade-d279-4e3d-a865-ba8f53a3113e" d="M383.52057,849.35925c-16.20337,5.53211-35.5882,8.75336-56.42359,8.75336-56.83624,0-102.91113-23.94708-102.91113-53.48749s46.07489-53.48761,102.91113-53.48761c20.83521,0,40.22,3.22125,56.42328,8.7533,4.82087-.84619,10.385-1.65643,16.78833-2.44568,12.7237-1.56824,28.70978-3.05335,47.7146-4.43756a113.48322,113.48322,0,0,0-29.71008-21.69635c-25.03-13.00922-57.4245-20.17371-91.21613-20.17371s-66.18609,7.16449-91.21612,20.17371c-14.32813,7.447-25.98023,16.614-34.63263,27.24628-11.16235,13.71636-17.06238,29.64636-17.06238,46.06762s5.9,32.35126,17.06238,46.06763c8.65253,10.63226,20.3045,19.79925,34.63263,27.24609,25.03,13.00928,57.4245,20.17377,91.21612,20.17377s66.18616-7.16449,91.21613-20.17377a113.47835,113.47835,0,0,0,29.71033-21.69641c-19.005-1.38421-34.99115-2.86932-47.71485-4.43756C393.90533,851.01562,388.34137,850.20544,383.52057,849.35925Z"/><path class="abb2aade-d279-4e3d-a865-ba8f53a3113e" d="M821.958,791.78131a47.87581,47.87581,0,0,0-10.57819-20.8374c-10.50366-12.11658-24.54565-16.5517-34.19415-18.83368-19.864-4.698-52.47229-6.70245-109.03382-6.70245-58.07568,0-131.27526,2.18322-191.03308,5.69751q-15.55371.91479-29.09552,1.90228,2.60065,2.70456,4.92255,5.54993a74.896,74.896,0,0,1,15.81555,33.13305c60.8012-3.86011,139.60224-6.28277,199.3905-6.28277,112.6709,0,115.15168,8.60382,115.15168,19.21722s-2.48078,19.21722-115.15168,19.21722c-59.78826,0-138.58923-2.42266-199.39044-6.28277a74.89544,74.89544,0,0,1-15.81561,33.1333q-2.31664,2.84665-4.9223,5.54968,13.53974.9862,29.09527,1.90228c59.75782,3.51429,132.9574,5.69751,191.03308,5.69751,56.56153,0,89.16987-2.00445,109.03382-6.70245,9.6485-2.282,23.69049-6.7171,34.19415-18.83368A49.65232,49.65232,0,0,0,823.30347,804.625,55.8026,55.8026,0,0,0,821.958,791.78131Z"/><path class="abb2aade-d279-4e3d-a865-ba8f53a3113e" d="M383.52026,759.89081c22.9422,7.83282,39.49524,20.30261,44.72589,34.84668,12.09662-1.09076,25.77527-2.11115,40.51514-3.04694a74.896,74.896,0,0,0-15.81555-33.13305q-2.31664-2.84683-4.92255-5.54993c-19.00482,1.38421-34.9909,2.86932-47.7146,4.43756C393.90521,758.23438,388.34113,759.04462,383.52026,759.89081Z"/><path class="abb2aade-d279-4e3d-a865-ba8f53a3113e" d="M468.76135,817.55945c-14.7398-.93579-28.41852-1.95624-40.51513-3.04694-5.23053,14.54407-21.78357,27.01392-44.72565,34.84674,4.8208.84619,10.38476,1.65637,16.788,2.44562,12.7237,1.56824,28.7099,3.05335,47.71485,4.43756q2.60055-2.70447,4.9223-5.54968A74.89544,74.89544,0,0,0,468.76135,817.55945Z"/><path class="abb2aade-d279-4e3d-a865-ba8f53a3113e" d="M500,117.00615c149.62866,0,270.92651,121.29784,270.92651,270.9265,0,149.62851-121.29785,270.92648-270.92651,270.92648s-270.9265-121.298-270.9265-270.92648c0-149.62866,121.29784-270.9265,270.9265-270.9265m0-40a310.078,310.078,0,1,0,121.039,24.4505A309.01821,309.01821,0,0,0,500,77.00615Z"/><path class="abb2aade-d279-4e3d-a865-ba8f53a3113e" d="M500,205.27879A182.65385,182.65385,0,1,1,317.34613,387.93265,182.65377,182.65377,0,0,1,500,205.27879m0-40a222.08293,222.08293,0,1,0,86.67926,17.51372A221.29524,221.29524,0,0,0,500,165.27879Z"/></svg>