<?xml version="1.0" encoding="UTF-8"?>
<svg width="1000px" height="1000px" viewBox="0 0 1000 1000" version="1.1" xmlns="http://www.w3.org/2000/svg" xmlns:xlink="http://www.w3.org/1999/xlink">
    <title>dish</title>
    <g id="dish" stroke="none" stroke-width="1" fill="none" fill-rule="evenodd" stroke-linejoin="round">
        <g id="Spoon" transform="translate(254.813900, 737.963450)" stroke="#A77B50" stroke-width="40">
            <path d="M176.721743,65.8198746 C170.540147,76.3913008 160.127961,85.2429324 146.84563,91.9418132 C128.846925,101.019376 105.786016,106 81.5157116,106 C56.4928083,106 32.7617628,100.705076 14.5439272,91.094911 C-6.55823612,79.9632221 -20,63.1991071 -20,42.999598 C-20,22.8000089 -6.55816519,6.03605106 14.5441158,-5.09541241 C32.7618561,-14.7052793 56.4928139,-20 81.5157116,-20 C124.07349,-20 161.98101,-4.9763972 176.625359,19.9458378 C238.689909,16.8980573 325.343967,14.3805 388.965605,14.3805 C437.404689,14.3805 465.106905,15.1145516 479.50092,16.6814343 C488.19761,17.6281258 493.719079,18.913041 498.651865,21.9861416 C503.456046,24.979122 507.088372,29.5360599 508.605481,35.2938636 C509.213643,37.601987 509.39998,39.7535938 509.324883,41.8612935 C509.31225,42.2158363 509.292803,42.5522139 509.267435,42.8805 C509.292803,43.2087861 509.31225,43.5451637 509.324883,43.8997065 C509.39998,46.0074062 509.213643,48.159013 508.605481,50.4671364 C507.088372,56.2249401 503.456046,60.781878 498.651865,63.7748584 C493.719079,66.847959 488.19761,68.1328742 479.50092,69.0795657 C465.106905,70.6464484 437.404689,71.3805 388.965605,71.3805 C325.377567,71.3805 238.78441,68.8657211 176.721737,65.8198742 Z" id="Combined-Shape"></path>
            <path d="M81.5157116,-20 C106.538609,-20 130.269567,-14.7052793 148.487307,-5.09541241 C169.589588,6.03605106 183.031423,22.8000089 183.031423,42.999598 C183.031423,63.1991071 169.589659,79.9632221 148.487496,91.094911 C130.26966,100.705076 106.538615,106 81.5157116,106 C56.4928083,106 32.7617628,100.705076 14.5439272,91.094911 C-6.55823612,79.9632221 -20,63.1991071 -20,42.999598 C-20,22.8000089 -6.55816519,6.03605106 14.5441158,-5.09541241 C32.7618561,-14.7052793 56.4928139,-20 81.5157116,-20 Z" id="Stroke-1"></path>
        </g>
        <path d="M759.8139,407.96345 C759.8139,553.76677 641.61722,671.96345 495.8139,671.96345 C350.011555,671.96345 231.8139,553.76677 231.8139,407.96345 C231.8139,262.161105 350.011555,143.96345 495.8139,143.96345 C641.61722,143.96345 759.8139,262.161105 759.8139,407.96345 Z" id="Stroke-5" stroke="#A77B50" stroke-width="40" stroke-linecap="round"></path>
        <path d="M679.8139,407.96345 C679.8139,509.583825 597.434275,591.96345 495.8139,591.96345 C394.193525,591.96345 311.8139,509.583825 311.8139,407.96345 C311.8139,306.343075 394.193525,223.96345 495.8139,223.96345 C597.434275,223.96345 679.8139,306.343075 679.8139,407.96345 Z" id="Stroke-7" stroke="#A77B50" stroke-width="40" stroke-linecap="round"></path>
    </g>
</svg>