<svg id="e778d930-d20c-4907-8b03-b7eb700cfd9f" data-name="レイヤー 2" xmlns="http://www.w3.org/2000/svg" viewBox="0 0 1000 1000"><defs><style>.f7d19fe7-ec50-41c5-9377-9d47aff166e4{fill:#fff;}</style></defs><title>edit</title><rect class="f7d19fe7-ec50-41c5-9377-9d47aff166e4" x="505.46862" y="469.05033" width="102.12721" height="40.00091" transform="translate(-182.80661 536.76737) rotate(-45)"/><rect class="f7d19fe7-ec50-41c5-9377-9d47aff166e4" x="734.35769" y="717.79869" width="133.21919" height="40.00125" transform="translate(-287.10501 782.46582) rotate(-45)"/><path class="f7d19fe7-ec50-41c5-9377-9d47aff166e4" d="M540.07227,359.061H246.15381a20,20,0,1,1,0-40H540.07227a20,20,0,0,1,0,40Z"/><path class="f7d19fe7-ec50-41c5-9377-9d47aff166e4" d="M614.43658,800.93439a12.03519,12.03519,0,0,1-12,12H183.78894a12.03519,12.03519,0,0,1-12-12v-601.812a12.0353,12.0353,0,0,1,12-12H464.43658c82.5,0,150,67.5,150,150v82.306a39.96605,39.96605,0,0,1,6.48725,5.23077l33.51275,33.51276V337.12238A187.92143,187.92143,0,0,0,639.416,263.23962,191.46057,191.46057,0,0,0,538.31934,162.14294a187.92143,187.92143,0,0,0-73.88276-15.02056H183.78894a52.05887,52.05887,0,0,0-52,52v601.812a52.05888,52.05888,0,0,0,52,52H602.43658a52.05887,52.05887,0,0,0,52-52V715.73828l-40-40Z"/><path class="f7d19fe7-ec50-41c5-9377-9d47aff166e4" d="M540.07227,580.8125H519.5108l94.92578,94.92578V619.16974l-54.71185-54.71185A19.99411,19.99411,0,0,1,540.07227,580.8125Z"/><path class="f7d19fe7-ec50-41c5-9377-9d47aff166e4" d="M909.00537,712.74091l-254.56879-254.569V514.7406L880.72107,741.02521l-72.21442,72.2146L654.43658,659.16974v56.56854L780.22235,841.52405a40,40,0,0,0,56.5686,0l72.21442-72.21454A40.00007,40.00007,0,0,0,909.00537,712.74091Z"/><path class="f7d19fe7-ec50-41c5-9377-9d47aff166e4" d="M511.36481,397.29889A39.975,39.975,0,0,0,464.69592,429.937h75.37635a19.98647,19.98647,0,0,1,19.74493,16.96027l32.82233,6.0462,21.79705,21.79706V419.42841a39.97951,39.97951,0,0,0-14.55065-5.82306Z"/><polygon class="f7d19fe7-ec50-41c5-9377-9d47aff166e4" points="614.437 619.17 614.437 675.738 654.437 715.738 654.437 659.17 614.437 619.17"/><path class="f7d19fe7-ec50-41c5-9377-9d47aff166e4" d="M614.43658,419.42841v55.31213l40,40.00006V458.17194l-33.51275-33.51276A39.96605,39.96605,0,0,0,614.43658,419.42841Z"/><path class="f7d19fe7-ec50-41c5-9377-9d47aff166e4" d="M520.42493,525.15808,510.25262,469.937h-40.673l11.5072,62.46765a39.98706,39.98706,0,0,0,2.53827,8.40784h52.45429Z"/><path class="f7d19fe7-ec50-41c5-9377-9d47aff166e4" d="M464.69592,429.937H246.15381a20,20,0,0,0,0,40H469.57959l-4.79932-26.0534A39.95327,39.95327,0,0,1,464.69592,429.937Z"/><path class="f7d19fe7-ec50-41c5-9377-9d47aff166e4" d="M504.11841,436.637l55.69879,10.26026A19.98647,19.98647,0,0,0,540.07227,429.937H464.69592a39.95327,39.95327,0,0,0,.08435,13.9466l4.79932,26.0534h40.673Z"/><path class="f7d19fe7-ec50-41c5-9377-9d47aff166e4" d="M483.62506,540.8125H246.15381a20,20,0,0,0,0,40h273.357l-27.37011-27.37012A39.99,39.99,0,0,1,483.62506,540.8125Z"/><path class="f7d19fe7-ec50-41c5-9377-9d47aff166e4" d="M559.72473,564.45789,536.07935,540.8125H483.62506a39.99,39.99,0,0,0,8.51563,12.62988L519.5108,580.8125h20.56147A19.99411,19.99411,0,0,0,559.72473,564.45789Z"/><path class="f7d19fe7-ec50-41c5-9377-9d47aff166e4" d="M540.07227,691.68848H246.15381a20,20,0,0,1,0-40H540.07227a20,20,0,0,1,0,40Z"/></svg>