<?xml version="1.0" encoding="UTF-8" standalone="no"?>
<!DOCTYPE svg PUBLIC "-//W3C//DTD SVG 1.1//EN" "http://www.w3.org/Graphics/SVG/1.1/DTD/svg11.dtd">
<svg width="100%" height="100%" viewBox="0 0 1000 1000" version="1.1" xmlns="http://www.w3.org/2000/svg" xmlns:xlink="http://www.w3.org/1999/xlink" xml:space="preserve" xmlns:serif="http://www.serif.com/" style="fill-rule:evenodd;clip-rule:evenodd;stroke-linecap:round;stroke-linejoin:round;stroke-miterlimit:1.5;">
    <g transform="matrix(1.25579e-16,2.05086,-2.05086,1.25579e-16,1534.13,-313.834)">
        <path d="M366.016,390.86C372.534,379.57 384.579,372.616 397.615,372.616C410.651,372.616 422.696,379.57 429.214,390.86C461.498,446.777 511.342,533.11 543.626,589.027C550.144,600.316 550.144,614.225 543.626,625.515C537.108,636.804 525.063,643.758 512.027,643.758L283.203,643.758C270.167,643.758 258.122,636.804 251.604,625.515C245.086,614.225 245.086,600.316 251.604,589.027C283.888,533.11 333.732,446.777 366.016,390.86Z" style="fill:none;stroke:rgb(167,123,80);stroke-width:19.5px;"/>
    </g>
</svg>
