<?xml version="1.0" encoding="UTF-8"?>
<svg width="1000px" height="1000px" viewBox="0 0 1000 1000" version="1.1" xmlns="http://www.w3.org/2000/svg" xmlns:xlink="http://www.w3.org/1999/xlink">
    <title>recipe</title>
    <g id="recipe" stroke="none" stroke-width="1" fill="none" fill-rule="evenodd" stroke-linejoin="round">
        <g id="Spoon" transform="translate(750.631275, 498.500000) rotate(-270.000000) translate(-750.631275, -498.500000) translate(496.131275, 454.500000)" stroke="#A77B50" stroke-width="40">
            <path d="M182.791968,67.3572521 C167.729327,92.7296872 128.635533,108 84.676525,108 C58.8458612,108 34.3594241,102.618158 15.5793088,92.8593931 C-6.15718436,81.5643971 -20,64.558039 -20,43.9995887 C-20,23.4410584 -6.15711447,6.4348635 15.5794963,-4.85990183 C34.3595134,-14.6183636 58.8458629,-20 84.676525,-20 C128.492502,-20 167.478116,-4.8284963 182.647833,20.4110579 C248.633959,17.0543627 336.960098,14.3805 402.578889,14.3805 C453.610108,14.3805 482.795698,15.2010164 497.964502,16.9529296 C507.0865,18.00647 512.911661,19.4447204 518.011572,22.8156822 C522.747886,25.9463121 526.233079,30.5852844 527.646384,36.2762049 C528.199839,38.5047896 528.369049,40.5777718 528.300576,42.6167217 C528.285743,43.0584049 528.260575,43.472836 528.226715,43.8805 C528.260575,44.288164 528.285743,44.7025951 528.300576,45.1442783 C528.369049,47.1832282 528.199839,49.2562104 527.646384,51.4847951 C526.233079,57.1757156 522.747886,61.8146879 518.011572,64.9453178 C512.911661,68.3162796 507.0865,69.75453 497.964502,70.8080704 C482.795698,72.5599836 453.610108,73.3805 402.578889,73.3805 C337.008669,73.3805 248.767679,70.7107198 182.791968,67.3572521 Z" id="Combined-Shape"></path>
            <path d="M84.676525,-20 C110.507187,-20 134.993537,-14.6183636 153.773554,-4.85990183 C175.510164,6.4348635 189.35305,23.4410584 189.35305,43.9995887 C189.35305,64.558039 175.510234,81.5643971 153.773741,92.8593931 C134.993626,102.618158 110.507189,108 84.676525,108 C58.8458612,108 34.3594241,102.618158 15.5793088,92.8593931 C-6.15718436,81.5643971 -20,64.558039 -20,43.9995887 C-20,23.4410584 -6.15711447,6.4348635 15.5794963,-4.85990183 C34.3595134,-14.6183636 58.8458629,-20 84.676525,-20 Z" id="Stroke-1"></path>
        </g>
        <g id="Recipe" transform="translate(169.631275, 187.000000)" stroke="#A77B50" stroke-linecap="round" stroke-width="40">
            <path d="M20,28.0112045 L324,28.0112045 C379.228475,28.0112045 424,72.7827295 424,128.011204 L424,576.988796 C424,588.034491 415.045695,596.988796 404,596.988796 L20,596.988796 C8.954305,596.988796 1.3527075e-15,588.034491 0,576.988796 L0,48.0112045 C-1.3527075e-15,36.9655095 8.954305,28.0112045 20,28.0112045 Z" id="Rectangle"></path>
            <path d="M79.4862577,161.207546 L343.96757,161.207546" id="Stroke-3"></path>
            <path d="M79.4862577,265.432773 L343.96757,265.432773" id="Stroke-5"></path>
            <path d="M79.4862577,369.658438 L343.96757,369.658438" id="Stroke-7"></path>
            <path d="M79.4862577,473.883228 L343.96757,473.883228" id="Stroke-9"></path>
        </g>
    </g>
</svg>