<?xml version="1.0" encoding="UTF-8"?>
<svg width="1000px" height="1000px" viewBox="0 0 1000 1000" version="1.1" xmlns="http://www.w3.org/2000/svg" xmlns:xlink="http://www.w3.org/1999/xlink">
    <title>search</title>
    <g id="search" stroke="none" stroke-width="1" fill="none" fill-rule="evenodd" stroke-linejoin="round">
        <path d="M583.493865,525.727611 L814.061052,756.295141 C829.979766,772.213879 829.979766,798.144468 814.061052,814.061626 C798.143243,829.979458 772.213183,829.979458 756.29539,814.061641 L525.727513,583.493931 C488.705795,609.008648 444.654851,623 398.5,623 C274.512549,623 174,522.487451 174,398.5 C174,274.51201 274.512283,174 398.5,174 C522.487717,174 623,274.51201 623,398.5 C623,444.654892 609.008623,488.705873 583.493865,525.727611 Z" id="Combined-Shape" stroke="#A77B50" stroke-width="40"></path>
        <path d="M249.346775,399.3466 C249.346775,316.503952 316.504335,249.3466 399.347177,249.3466 C482.189904,249.3466 549.346775,316.503837 549.346775,399.3466 C549.346775,482.189363 482.189904,549.3466 399.347177,549.3466 C316.504335,549.3466 249.346775,482.189248 249.346775,399.3466 Z" id="Stroke-5" stroke="#A77B50" stroke-width="40"></path>
        <path d="M174.346775,399.3466 C174.346775,275.082467 275.082916,174.3466 399.346775,174.3466 C523.610634,174.3466 624.346775,275.082467 624.346775,399.3466 C624.346775,523.610193 523.610368,624.3466 399.346775,624.3466 C275.083182,624.3466 174.346775,523.610193 174.346775,399.3466 Z" id="Stroke-3" stroke="#A77B50" stroke-width="40"></path>
    </g>
</svg>